<svg xml:space="preserve" viewBox="0 0 1000 1000">
  <path d="M464.14 11.04C256.89 25.61 78.06 174.07 25.69 375.38c-20.5 79.04-21 166.98-.99 245.28C37.54 672.29 62 726.88 91.64 771.09c157.84 236.14 478.71 290.24 705.46 118.81 25.94-19.51 73.12-66.69 92.63-92.63 146.48-193.66 130.92-462.41-36.56-636.55C751.66 55.01 610.61.91 464.14 11.04zm58.04 205.02c5.19 2.72 12.6 8.89 16.55 14.08l6.92 8.89.74 134.87c.25 74.1 0 137.34-.74 140.3-1.73 7.66-15.07 22.48-24.21 27.17-10.13 5.19-28.9 4.69-40.26-.74-5.19-2.72-12.84-8.89-16.8-14.08l-7.66-9.63-.74-132.4c-.49-87.69 0-135.61 1.73-141.54 7.91-26.43 39.53-39.77 64.47-26.92zm-193.65 51.62c10.62 4.69 21.24 16.8 24.45 27.17 5.44 17.79-1.23 39.27-16.06 53.35-22.23 20.75-45.7 64.72-54.59 101.52-6.42 26.92-6.92 69.91-1.24 96.58 14.82 69.66 61.75 127.95 125.98 157.84 30.88 14.08 55.08 19.27 91.64 19.27 24.95 0 37.05-1.24 53.85-5.44 100.54-25.2 169.7-112.64 169.94-215.39.25-34.09-4.69-60.52-16.3-87.2-11.36-26.43-22.23-43.97-38.53-62-17.54-19.27-21.98-27.91-21.98-43.47 0-31.62 27.91-52.86 58.54-44.46 27.67 7.91 76.33 75.83 95.59 133.88 10.62 31.12 14.33 53.11 15.56 90.9 1.48 42.98-2.72 72.62-15.56 111.16-36.56 108.93-131.41 191.19-244.3 211.2-28.9 5.19-82.25 5.19-111.15 0-65.71-11.61-129.68-46.68-175.38-95.84-55.83-59.78-85.22-134.62-85.22-216.88 0-80.53 31.86-160.56 85.96-215.64 20.51-20.99 38.05-25.93 58.8-16.55z"/>
</svg>
